<?xml version="1.0" encoding="utf-8"?>
<!-- Generator: Adobe Illustrator 23.0.1, SVG Export Plug-In . SVG Version: 6.00 Build 0)  -->
<svg version="1.1" xmlns="http://www.w3.org/2000/svg" xmlns:xlink="http://www.w3.org/1999/xlink" x="0px" y="0px"
	 viewBox="0 0 1000 1000" style="enable-background:new 0 0 1000 1000;" xml:space="preserve">
<style type="text/css">
	.st0{fill:#F9C32B;}
	.st1{fill:#FFFFFF;}
</style>
<g id="Layer_1">
	<rect id="BG" class="st0" width="1000" height="1000"/>
</g>
<g id="Layer_2">
	<g>
		<path d="M246.1,600.53h-69.37V577.4H153.6v23.13H84.22V577.4H61.1v-185h23.12v-23.13h115.62v23.13h23.13v23.12h23.12v46.25h-23.12
			v23.12h23.12V600.53z M176.72,484.9v-23.12h-69.37v-46.25h69.37v-23.12h-92.5v161.87h23.13V484.9H176.72z M199.85,461.78v-46.25
			h-23.12v46.25H199.85z M199.85,554.28V484.9h-23.12v69.37H199.85z"/>
		<path d="M431.1,600.53h-69.37V577.4h-46.25v23.13h-46.25V577.4H246.1V438.65h23.12v-23.12h115.62v23.12h23.13v23.13h23.12V600.53z
			 M361.72,461.78v-23.13h-92.5v115.62h23.13v-92.5H361.72z M384.85,554.28v-92.5h-23.12v92.5H384.85z"/>
		<path d="M616.1,623.65h-23.13v23.13h-23.13v23.12H454.22v-23.12H431.1v-46.25h23.12v-46.25H431.1v-92.5h23.12v-23.13h23.13v-23.12
			h115.62v23.12h23.13V623.65z M477.35,531.15v-69.37h-23.13v69.37H477.35z M546.72,623.65v-23.13h-92.5v23.13H546.72z
			 M569.85,600.53V438.65h-92.5v23.13h69.37v69.37h-69.37v23.12h69.37v46.25H569.85z"/>
		<path d="M731.72,600.53h-69.37V577.4h-23.13v-23.13H616.1V415.53h23.13v-23.12h23.13v-23.13h46.25v23.13h23.12v46.25H708.6v92.5
			h23.12V600.53z M662.35,531.15V415.53h-23.13v115.62H662.35z M685.47,415.53v-23.12h-23.12v23.12H685.47z M685.47,554.28v-23.12
			h-23.12v23.12H685.47z"/>
		<path d="M847.35,554.28h-23.12v23.13H801.1v23.13h-46.25V577.4h-23.13v-46.25h23.13v-92.5h-23.13v-46.25h23.13v-23.13h46.25v23.13
			h23.13v23.12h23.12V554.28z M777.97,415.53v-23.12h-23.12v23.12H777.97z M777.97,554.28v-23.12h-23.12v23.12H777.97z
			 M801.1,531.15V415.53h-23.13v115.62H801.1z"/>
		<path d="M939.85,600.53h-23.13v23.13H893.6v23.13h-46.25v-23.13h-23.13V577.4h23.13v-92.5h23.13v-23.12h46.25v23.12h23.13V600.53z
			 M870.47,600.53V577.4h-23.13v23.13H870.47z M893.6,508.03V484.9h-23.12v23.12H893.6z M893.6,577.4v-46.25h-23.12v46.25H893.6z"/>
	</g>
	<g id="Text_Color">
		<g>
			<rect x="639.22" y="415.53" class="st1" width="23.13" height="115.62"/>
		</g>
		<g>
			<rect x="454.22" y="461.78" class="st1" width="23.13" height="69.37"/>
		</g>
		<g>
			<rect x="662.35" y="392.41" class="st1" width="23.12" height="23.12"/>
		</g>
		<g>
			<rect x="662.35" y="531.15" class="st1" width="23.12" height="23.12"/>
		</g>
		<g>
			<rect x="454.22" y="600.53" class="st1" width="92.5" height="23.13"/>
		</g>
		<g>
			<polygon class="st1" points="292.35,554.28 292.35,461.78 361.72,461.78 361.72,438.65 269.22,438.65 269.22,554.28 			"/>
		</g>
		<g>
			<rect x="176.72" y="415.53" class="st1" width="23.12" height="46.25"/>
		</g>
		<g>
			<rect x="176.72" y="484.9" class="st1" width="23.12" height="69.37"/>
		</g>
		<g>
			<rect x="361.72" y="461.78" class="st1" width="23.12" height="92.5"/>
		</g>
		<g>
			<polygon class="st1" points="107.35,554.28 107.35,484.9 176.72,484.9 176.72,461.78 107.35,461.78 107.35,415.53 176.72,415.53 
				176.72,392.41 84.22,392.41 84.22,554.28 			"/>
		</g>
		<g>
			<polygon class="st1" points="546.72,461.78 546.72,531.15 477.35,531.15 477.35,554.28 546.72,554.28 546.72,600.53 
				569.85,600.53 569.85,438.65 477.35,438.65 477.35,461.78 			"/>
		</g>
		<g>
			<rect x="870.47" y="531.15" class="st1" width="23.12" height="46.25"/>
		</g>
		<g>
			<rect x="870.47" y="484.9" class="st1" width="23.12" height="23.12"/>
		</g>
		<g>
			<rect x="754.85" y="531.15" class="st1" width="23.12" height="23.12"/>
		</g>
		<g>
			<rect x="847.35" y="577.4" class="st1" width="23.13" height="23.13"/>
		</g>
		<g>
			<rect x="777.97" y="415.53" class="st1" width="23.13" height="115.62"/>
		</g>
		<g>
			<rect x="754.85" y="392.41" class="st1" width="23.12" height="23.12"/>
		</g>
	</g>
</g>
</svg>
